<svg width="25" height="24" viewBox="0 0 25 24" fill="none" xmlns="http://www.w3.org/2000/svg">
<path d="M13.6121 12.0001L17.9121 7.71011C18.1005 7.52181 18.2062 7.26641 18.2062 7.00011C18.2062 6.73381 18.1005 6.47841 17.9121 6.29011C17.7238 6.10181 17.4685 5.99602 17.2021 5.99602C16.9358 5.99602 16.6805 6.10181 16.4921 6.29011L12.2021 10.5901L7.91215 6.29011C7.72384 6.10181 7.46845 5.99602 7.20215 5.99602C6.93585 5.99602 6.68045 6.10181 6.49215 6.29011C6.30384 6.47841 6.19806 6.73381 6.19806 7.00011C6.19806 7.26641 6.30384 7.52181 6.49215 7.71011L10.7921 12.0001L6.49215 16.2901C6.39842 16.3831 6.32403 16.4937 6.27326 16.6155C6.22249 16.7374 6.19635 16.8681 6.19635 17.0001C6.19635 17.1321 6.22249 17.2628 6.27326 17.3847C6.32403 17.5065 6.39842 17.6171 6.49215 17.7101C6.58511 17.8038 6.69571 17.8782 6.81757 17.929C6.93943 17.9798 7.07014 18.0059 7.20215 18.0059C7.33416 18.0059 7.46487 17.9798 7.58673 17.929C7.70858 17.8782 7.81919 17.8038 7.91215 17.7101L12.2021 13.4101L16.4921 17.7101C16.5851 17.8038 16.6957 17.8782 16.8176 17.929C16.9394 17.9798 17.0701 18.0059 17.2021 18.0059C17.3342 18.0059 17.4649 17.9798 17.5867 17.929C17.7086 17.8782 17.8192 17.8038 17.9121 17.7101C18.0059 17.6171 18.0803 17.5065 18.131 17.3847C18.1818 17.2628 18.2079 17.1321 18.2079 17.0001C18.2079 16.8681 18.1818 16.7374 18.131 16.6155C18.0803 16.4937 18.0059 16.3831 17.9121 16.2901L13.6121 12.0001Z" fill="#999999"/>
</svg>
